# xmcd
#
# Track frame offsets: 
#        182
#        1755
#        25715
#        40770
#        53637
#        72955
#        102042
#        117300
#        131390
#        156315
#        178757
#        198895
#        229787
#        244440
#        263052
#        287835
#        314297
#
# Disc length: 4479 seconds
#
# Revision: 6
# Processed by: cddbd v1.5.2PL0 Copyright (c) Steve Scherf et al.
# Submitted via: ExactAudioCopyFreeDBPlugin 1.0
#
DISCID=e0117d11
DTITLE=Saffire -The Uppity Blues Women - Live and Uppity
DYEAR=1998
DGENRE=Blues
TTITLE0=Introduction
TTITLE1=Cold Pizza and Warm Beer
TTITLE2=You'll Never Get Me Out of Your Mind
TTITLE3=One Good Man
TTITLE4=Hold Me Close
TTITLE5=Silver Beaver
TTITLE6=Mr. Insurance Man
TTITLE7=The Thing That You Need
TTITLE8=1-800-799-7233
TTITLE9=You Can Have My Husband
TTITLE10=Hopin' It'll Be Alright
TTITLE11=Bitch with a Bad Attittude
TTITLE12=Dump That Chump
TTITLE13=Lonely Nights
TTITLE14=Middle Aged Blues Boogie
TTITLE15=Crazy
TTITLE16=Some Cold and Rainy Day
EXTD=
EXTT0=
EXTT1=
EXTT2=
EXTT3=
EXTT4=
EXTT5=
EXTT6=
EXTT7=
EXTT8=1-800-799-7233 in the US is the toll free\ntelephone number for 
EXTT8=the National Domestic\nViolence Hot Line.\n
EXTT9=
EXTT10=
EXTT11=
EXTT12=
EXTT13=
EXTT14=
EXTT15=
EXTT16=
PLAYORDER=
